<svg width="725.467" height="87.01" viewBox="0 0 725.467 87.01" xmlns="http://www.w3.org/2000/svg"><g id="svgGroup" stroke-linecap="round" fill-rule="nonzero" font-size="9pt" stroke="#f6f5f4" stroke-width="0.5" fill="#f6f5f4" style="stroke:#f6f5f4;stroke-width:0.5;fill:#f6f5f4"><path d="M 144.423 52.558 L 144.423 0.59 L 158.053 0.59 L 158.053 52.558 Q 158.053 54.066 158.981 55.168 Q 159.329 55.69 159.88 56.067 Q 160.431 56.444 161.185 56.618 Q 161.881 56.85 162.577 56.85 Q 164.433 56.85 165.738 55.719 Q 167.043 54.588 167.043 52.558 L 167.043 0.59 L 180.673 0.59 L 180.673 52.558 Q 180.673 59.054 177.541 63.346 Q 175.917 65.55 173.771 67.029 Q 171.625 68.508 168.725 69.378 Q 165.941 70.19 162.577 70.19 Q 159.039 70.19 156.284 69.349 Q 153.529 68.508 151.383 67.058 Q 146.859 63.984 145.235 58.474 Q 144.423 55.748 144.423 52.558 Z M 34.455 21.296 L 21.695 21.296 L 21.695 17.236 Q 21.695 11.61 17.925 11.61 Q 16.185 11.61 15.199 12.944 Q 14.213 14.278 14.213 16.772 Q 14.213 17.526 14.358 18.396 Q 14.503 19.266 15.083 20.252 Q 15.547 21.122 16.475 22.311 Q 17.403 23.5 18.795 24.834 Q 19.491 25.588 20.361 26.4 Q 21.173 27.27 22.217 28.198 Q 25.349 31.04 27.988 33.766 Q 30.627 36.492 32.309 38.58 Q 33.991 40.784 34.977 42.814 Q 35.963 44.844 36.427 46.99 Q 36.659 48.092 36.746 49.252 Q 36.833 50.412 36.833 51.688 Q 36.833 55.168 36.079 58.097 Q 35.325 61.026 33.759 63.346 Q 32.309 65.55 29.96 67.116 Q 27.611 68.682 24.827 69.378 Q 21.753 70.19 18.215 70.19 A 21.705 21.705 0 0 1 8.383 68.161 A 15.005 15.005 0 0 1 6.615 67.116 Q 2.207 64.1 0.757 58.126 Q 0.003 55.226 0.003 51.456 L 0.003 45.366 L 12.763 45.366 L 12.763 51.514 Q 12.763 54.878 14.155 56.734 Q 15.431 58.59 18.099 58.59 Q 19.027 58.59 19.897 58.329 Q 20.767 58.068 21.347 57.488 Q 21.869 56.966 22.333 56.183 Q 22.797 55.4 23.029 54.24 Q 23.087 53.718 23.145 53.109 Q 23.203 52.5 23.203 51.862 Q 23.203 50.644 23.029 49.745 Q 22.855 48.846 22.333 47.802 Q 21.753 46.758 20.738 45.656 Q 19.723 44.554 18.389 43.22 Q 17.635 42.524 16.736 41.712 Q 15.837 40.9 14.793 39.972 Q 11.545 37.072 9.138 34.665 Q 6.731 32.258 5.049 29.996 Q 3.367 27.792 2.41 25.733 Q 1.453 23.674 0.989 21.528 Q 0.757 20.484 0.67 19.324 Q 0.583 18.164 0.583 16.946 Q 0.583 13.756 1.25 11.001 Q 1.917 8.246 3.367 6.158 Q 6.209 2.098 11.603 0.706 Q 14.271 0.01 17.693 0.01 A 20.898 20.898 0 0 1 27.284 2.008 A 14.45 14.45 0 0 1 28.365 2.62 Q 29.757 3.49 31.323 5.346 Q 32.889 7.202 33.759 10.392 Q 34.455 13.002 34.455 16.192 L 34.455 21.296 Z M 219.765 21.296 L 207.005 21.296 L 207.005 17.236 Q 207.005 11.61 203.235 11.61 Q 201.495 11.61 200.509 12.944 Q 199.523 14.278 199.523 16.772 Q 199.523 17.526 199.668 18.396 Q 199.813 19.266 200.393 20.252 Q 200.857 21.122 201.785 22.311 Q 202.713 23.5 204.105 24.834 Q 204.801 25.588 205.671 26.4 Q 206.483 27.27 207.527 28.198 Q 210.659 31.04 213.298 33.766 Q 215.937 36.492 217.619 38.58 Q 219.301 40.784 220.287 42.814 Q 221.273 44.844 221.737 46.99 Q 221.969 48.092 222.056 49.252 Q 222.143 50.412 222.143 51.688 Q 222.143 55.168 221.389 58.097 Q 220.635 61.026 219.069 63.346 Q 217.619 65.55 215.27 67.116 Q 212.921 68.682 210.137 69.378 Q 207.063 70.19 203.525 70.19 A 21.705 21.705 0 0 1 193.693 68.161 A 15.005 15.005 0 0 1 191.925 67.116 Q 187.517 64.1 186.067 58.126 Q 185.313 55.226 185.313 51.456 L 185.313 45.366 L 198.073 45.366 L 198.073 51.514 Q 198.073 54.878 199.465 56.734 Q 200.741 58.59 203.409 58.59 Q 204.337 58.59 205.207 58.329 Q 206.077 58.068 206.657 57.488 Q 207.179 56.966 207.643 56.183 Q 208.107 55.4 208.339 54.24 Q 208.397 53.718 208.455 53.109 Q 208.513 52.5 208.513 51.862 Q 208.513 50.644 208.339 49.745 Q 208.165 48.846 207.643 47.802 Q 207.063 46.758 206.048 45.656 Q 205.033 44.554 203.699 43.22 Q 202.945 42.524 202.046 41.712 Q 201.147 40.9 200.103 39.972 Q 196.855 37.072 194.448 34.665 Q 192.041 32.258 190.359 29.996 Q 188.677 27.792 187.72 25.733 Q 186.763 23.674 186.299 21.528 Q 186.067 20.484 185.98 19.324 Q 185.893 18.164 185.893 16.946 Q 185.893 13.756 186.56 11.001 Q 187.227 8.246 188.677 6.158 Q 191.519 2.098 196.913 0.706 Q 199.581 0.01 203.003 0.01 A 20.898 20.898 0 0 1 212.594 2.008 A 14.45 14.45 0 0 1 213.675 2.62 Q 215.067 3.49 216.633 5.346 Q 218.199 7.202 219.069 10.392 Q 219.765 13.002 219.765 16.192 L 219.765 21.296 Z M 316.625 47.396 L 329.791 47.396 Q 329.675 51.514 328.341 54.994 Q 327.007 58.474 324.919 61.2 Q 322.773 63.984 319.728 66.043 Q 316.683 68.102 313.377 69.088 Q 311.637 69.61 309.839 69.9 Q 308.041 70.19 306.127 70.19 Q 298.123 70.19 291.685 65.26 Q 288.727 62.998 286.465 59.605 Q 284.203 56.212 283.101 52.442 Q 281.941 48.556 281.941 44.09 Q 281.941 39.624 283.159 35.738 Q 284.377 31.852 286.581 28.72 Q 288.669 25.588 291.685 23.326 Q 294.701 21.064 298.413 19.788 Q 302.125 18.57 306.127 18.57 Q 313.725 18.57 319.699 22.63 Q 325.731 26.748 328.283 33.65 Q 328.921 35.39 329.298 37.304 Q 329.675 39.218 329.733 41.306 L 316.625 41.306 Q 316.509 39.624 316.045 38 Q 315.581 36.376 314.595 35.042 Q 312.681 32.432 309.549 31.504 Q 307.925 31.04 306.185 31.04 Q 304.271 31.04 302.589 31.62 Q 300.907 32.2 299.399 33.418 Q 297.949 34.578 296.934 36.318 Q 295.919 38.058 295.513 39.914 Q 295.281 40.958 295.136 42.06 Q 294.991 43.162 294.991 44.38 Q 294.991 46.642 295.484 48.759 Q 295.977 50.876 297.021 52.5 Q 299.051 55.864 302.473 57.082 Q 304.155 57.72 306.185 57.72 Q 308.157 57.72 309.665 57.256 Q 311.173 56.792 312.391 55.864 Q 314.943 54.008 316.045 50.818 Q 316.277 50.064 316.422 49.194 Q 316.567 48.324 316.625 47.396 Z M 661.261 47.396 L 674.427 47.396 Q 674.311 51.514 672.977 54.994 Q 671.643 58.474 669.555 61.2 Q 667.409 63.984 664.364 66.043 Q 661.319 68.102 658.013 69.088 Q 656.273 69.61 654.475 69.9 Q 652.677 70.19 650.763 70.19 Q 642.759 70.19 636.321 65.26 Q 633.363 62.998 631.101 59.605 Q 628.839 56.212 627.737 52.442 Q 626.577 48.556 626.577 44.09 Q 626.577 39.624 627.795 35.738 Q 629.013 31.852 631.217 28.72 Q 633.305 25.588 636.321 23.326 Q 639.337 21.064 643.049 19.788 Q 646.761 18.57 650.763 18.57 Q 658.361 18.57 664.335 22.63 Q 670.367 26.748 672.919 33.65 Q 673.557 35.39 673.934 37.304 Q 674.311 39.218 674.369 41.306 L 661.261 41.306 Q 661.145 39.624 660.681 38 Q 660.217 36.376 659.231 35.042 Q 657.317 32.432 654.185 31.504 Q 652.561 31.04 650.821 31.04 Q 648.907 31.04 647.225 31.62 Q 645.543 32.2 644.035 33.418 Q 642.585 34.578 641.57 36.318 Q 640.555 38.058 640.149 39.914 Q 639.917 40.958 639.772 42.06 Q 639.627 43.162 639.627 44.38 Q 639.627 46.642 640.12 48.759 Q 640.613 50.876 641.657 52.5 Q 643.687 55.864 647.109 57.082 Q 648.791 57.72 650.821 57.72 Q 652.793 57.72 654.301 57.256 Q 655.809 56.792 657.027 55.864 Q 659.579 54.008 660.681 50.818 Q 660.913 50.064 661.058 49.194 Q 661.203 48.324 661.261 47.396 Z M 243.603 19.15 L 256.653 19.15 L 260.771 45.134 Q 261.003 46.468 261.206 48.121 Q 261.409 49.774 261.525 51.34 Q 261.641 52.848 261.757 54.501 Q 261.873 56.154 261.989 57.894 L 261.989 59.46 L 261.989 60.91 L 262.917 60.91 Q 262.917 59.518 263.004 57.778 Q 263.091 56.038 263.265 54.646 Q 263.381 53.37 263.613 51.398 Q 263.845 49.426 264.019 48.092 L 264.251 46.584 Q 264.367 45.83 264.483 45.134 L 268.543 19.15 L 281.303 19.15 L 271.559 69.61 L 253.347 69.61 L 243.603 19.15 Z M 725.467 44.206 L 725.467 48.44 L 690.203 48.44 Q 690.551 50.18 691.334 51.659 Q 692.117 53.138 693.103 54.182 Q 694.205 55.342 695.423 56.096 Q 696.641 56.85 698.381 57.256 Q 699.135 57.488 699.976 57.604 Q 700.817 57.72 701.745 57.72 Q 704.529 57.72 706.849 56.792 Q 709.169 55.864 710.619 54.182 Q 710.967 53.776 711.257 53.312 Q 711.547 52.848 711.779 52.384 L 725.061 52.384 Q 724.249 55.98 722.683 58.648 Q 721.117 61.316 719.203 63.114 Q 716.999 65.318 714.244 66.884 Q 711.489 68.45 708.241 69.32 Q 706.675 69.726 704.993 69.958 Q 703.311 70.19 701.571 70.19 Q 697.105 70.19 693.48 68.885 Q 689.855 67.58 687.013 65.376 Q 680.807 60.62 678.487 52.674 Q 677.327 48.73 677.327 44.206 Q 677.327 39.856 678.545 35.854 Q 679.763 31.852 681.967 28.72 Q 684.229 25.53 687.274 23.268 Q 690.319 21.006 693.973 19.788 Q 697.685 18.57 701.687 18.57 Q 705.573 18.57 709.285 19.875 Q 712.997 21.18 715.839 23.5 Q 718.797 25.936 720.972 29.068 Q 723.147 32.2 724.307 36.144 Q 725.467 39.972 725.467 44.206 Z M 690.435 39.74 L 712.649 39.74 Q 711.721 36.666 709.517 34.462 Q 707.371 32.316 704.471 31.446 Q 703.717 31.272 702.963 31.156 Q 702.209 31.04 701.397 31.04 Q 698.439 31.04 695.713 32.606 Q 694.727 33.186 693.654 34.23 Q 692.581 35.274 691.711 36.84 Q 690.899 38.29 690.435 39.74 Z M 82.479 69.61 L 68.849 69.61 L 79.637 0.59 L 99.125 0.59 L 109.913 69.61 L 96.283 69.61 L 94.253 53.776 L 84.509 53.776 L 82.479 69.61 Z M 88.453 19.382 L 86.133 41.016 L 92.629 41.016 L 90.309 19.382 Q 90.193 18.048 90.135 16.975 Q 90.077 15.902 90.019 14.655 Q 89.961 13.408 89.961 11.61 L 88.801 11.61 L 88.801 13.292 L 88.801 14.104 Q 88.743 14.568 88.743 14.974 Q 88.743 15.554 88.685 16.163 Q 88.627 16.772 88.627 17.352 Q 88.627 18.512 88.453 19.382 Z M 417.951 34.23 L 406.641 34.23 L 406.641 32.026 Q 406.641 29.3 403.219 29.3 Q 400.261 29.3 400.261 32.142 Q 400.261 32.432 400.319 32.751 Q 400.377 33.07 400.725 33.534 Q 401.073 34.114 401.827 34.897 Q 402.581 35.68 403.741 36.666 Q 404.321 37.188 405.104 37.826 Q 405.887 38.464 406.873 39.16 A 283.021 283.021 0 0 1 411.783 43.072 A 134.108 134.108 0 0 1 412.035 43.278 Q 414.007 44.902 415.805 46.816 Q 417.139 48.266 418.067 49.861 Q 418.995 51.456 419.343 52.964 Q 419.691 54.588 419.691 56.328 Q 419.691 63.056 415.428 66.623 A 16.198 16.198 0 0 1 406.831 69.967 A 31.321 31.321 0 0 1 402.987 70.19 A 22.907 22.907 0 0 1 394.085 68.654 A 14.3 14.3 0 0 1 392.605 67.928 Q 390.285 66.652 389.038 64.825 Q 387.791 62.998 387.327 61.316 Q 386.631 58.996 386.631 56.444 L 386.631 51.92 L 397.941 51.92 L 397.941 55.284 Q 397.941 56.85 398.753 57.836 Q 399.275 58.532 399.71 58.793 Q 400.145 59.054 400.899 59.228 Q 401.247 59.344 401.624 59.402 Q 402.001 59.46 402.407 59.46 Q 403.103 59.46 403.712 59.344 Q 404.321 59.228 405.075 58.822 Q 406.119 58.242 406.467 57.198 Q 406.641 56.502 406.641 56.038 Q 406.641 55.458 406.467 54.878 Q 406.293 54.298 405.829 53.66 Q 405.423 53.138 404.408 52.21 Q 403.393 51.282 402.407 50.47 Q 401.769 49.948 401.015 49.368 Q 400.261 48.788 399.333 48.092 Q 396.607 46.004 394.432 44.148 Q 392.257 42.292 390.923 40.726 Q 389.531 39.102 388.719 37.652 Q 387.907 36.202 387.559 34.578 Q 387.211 33.012 387.211 31.33 A 12.251 12.251 0 0 1 390.08 22.72 Q 393.89 18.57 402.755 18.57 Q 405.655 18.57 408.178 19.063 Q 410.701 19.556 412.441 20.484 Q 416.095 22.514 417.371 26.226 Q 417.951 28.024 417.951 30.46 L 417.951 34.23 Z M 542.535 34.23 L 531.225 34.23 L 531.225 32.026 Q 531.225 29.3 527.803 29.3 Q 524.845 29.3 524.845 32.142 Q 524.845 32.432 524.903 32.751 Q 524.961 33.07 525.309 33.534 Q 525.657 34.114 526.411 34.897 Q 527.165 35.68 528.325 36.666 Q 528.905 37.188 529.688 37.826 Q 530.471 38.464 531.457 39.16 A 283.021 283.021 0 0 1 536.367 43.072 A 134.108 134.108 0 0 1 536.619 43.278 Q 538.591 44.902 540.389 46.816 Q 541.723 48.266 542.651 49.861 Q 543.579 51.456 543.927 52.964 Q 544.275 54.588 544.275 56.328 Q 544.275 63.056 540.012 66.623 A 16.198 16.198 0 0 1 531.415 69.967 A 31.321 31.321 0 0 1 527.571 70.19 A 22.907 22.907 0 0 1 518.669 68.654 A 14.3 14.3 0 0 1 517.189 67.928 Q 514.869 66.652 513.622 64.825 Q 512.375 62.998 511.911 61.316 Q 511.215 58.996 511.215 56.444 L 511.215 51.92 L 522.525 51.92 L 522.525 55.284 Q 522.525 56.85 523.337 57.836 Q 523.859 58.532 524.294 58.793 Q 524.729 59.054 525.483 59.228 Q 525.831 59.344 526.208 59.402 Q 526.585 59.46 526.991 59.46 Q 527.687 59.46 528.296 59.344 Q 528.905 59.228 529.659 58.822 Q 530.703 58.242 531.051 57.198 Q 531.225 56.502 531.225 56.038 Q 531.225 55.458 531.051 54.878 Q 530.877 54.298 530.413 53.66 Q 530.007 53.138 528.992 52.21 Q 527.977 51.282 526.991 50.47 Q 526.353 49.948 525.599 49.368 Q 524.845 48.788 523.917 48.092 Q 521.191 46.004 519.016 44.148 Q 516.841 42.292 515.507 40.726 Q 514.115 39.102 513.303 37.652 Q 512.491 36.202 512.143 34.578 Q 511.795 33.012 511.795 31.33 A 12.251 12.251 0 0 1 514.664 22.72 Q 518.474 18.57 527.339 18.57 Q 530.239 18.57 532.762 19.063 Q 535.285 19.556 537.025 20.484 Q 540.679 22.514 541.955 26.226 Q 542.535 28.024 542.535 30.46 L 542.535 34.23 Z M 548.625 87.01 L 548.625 19.15 L 561.675 19.15 Q 561.675 19.498 561.588 20.049 Q 561.501 20.6 561.211 21.354 Q 560.921 22.166 560.747 22.688 Q 560.573 23.21 560.051 24.08 Q 559.877 24.428 559.703 24.747 Q 559.529 25.066 559.355 25.356 L 560.051 25.936 Q 564.865 18.57 572.637 18.57 Q 577.045 18.57 579.597 20.89 Q 582.207 23.268 583.019 27.85 Q 583.193 29.01 583.309 30.315 Q 583.425 31.62 583.425 33.07 L 583.425 55.516 Q 583.425 58.358 582.99 60.823 Q 582.555 63.288 581.627 64.97 Q 580.699 66.71 579.423 67.841 Q 578.147 68.972 576.291 69.61 Q 574.493 70.19 572.173 70.19 Q 569.563 70.19 567.591 69.552 Q 566.199 69.146 565.416 68.798 Q 564.633 68.45 563.473 67.754 Q 562.487 67.232 561.675 66.536 L 561.675 87.01 L 548.625 87.01 Z M 561.095 36.318 L 561.095 52.442 Q 561.095 54.356 561.849 55.69 Q 562.081 56.154 562.69 56.705 Q 563.299 57.256 564.111 57.488 Q 564.807 57.72 565.735 57.72 Q 566.547 57.72 567.301 57.517 Q 568.055 57.314 568.693 56.792 Q 569.215 56.328 569.592 55.777 Q 569.969 55.226 570.201 54.24 Q 570.375 53.312 570.375 52.442 L 570.375 36.318 Q 570.375 34.404 569.621 33.012 Q 569.389 32.606 568.78 32.055 Q 568.171 31.504 567.417 31.272 Q 566.663 31.04 565.735 31.04 Q 564.923 31.04 564.169 31.243 Q 563.415 31.446 562.835 31.968 Q 562.255 32.432 561.878 32.983 Q 561.501 33.534 561.327 34.52 Q 561.095 35.448 561.095 36.318 Z M 62.469 69.61 L 48.839 69.61 L 48.839 13.35 L 38.109 13.35 L 38.109 0.59 L 73.199 0.59 L 73.199 13.35 L 62.469 13.35 L 62.469 69.61 Z M 129.923 69.61 L 116.293 69.61 L 116.293 13.35 L 105.563 13.35 L 105.563 0.59 L 140.653 0.59 L 140.653 13.35 L 129.923 13.35 L 129.923 69.61 Z M 474.675 38.928 L 474.675 35.1 Q 474.675 34.52 474.472 33.795 Q 474.269 33.07 473.979 32.664 Q 473.631 32.2 473.225 31.823 Q 472.819 31.446 472.123 31.214 Q 471.427 31.04 470.847 31.04 Q 470.325 31.04 469.6 31.214 Q 468.875 31.388 468.469 31.736 Q 467.541 32.432 467.193 33.65 Q 466.961 34.346 466.961 34.926 L 466.961 36.26 L 454.201 36.26 L 454.201 32.838 Q 454.201 30.286 454.926 27.966 Q 455.651 25.646 457.043 23.906 Q 459.885 20.484 465.221 19.15 Q 466.497 18.86 467.976 18.715 Q 469.455 18.57 471.021 18.57 Q 478.967 18.57 483.375 22.34 Q 487.725 26.11 487.725 32.838 L 487.725 69.61 L 474.675 69.61 Q 474.675 69.088 474.791 68.363 Q 474.907 67.638 475.081 67.116 Q 475.313 66.478 475.574 65.869 Q 475.835 65.26 476.183 64.564 Q 476.473 64.042 476.995 63.404 L 476.299 62.824 Q 475.371 64.448 474.414 65.521 Q 473.457 66.594 472.355 67.464 Q 471.311 68.334 470.064 68.943 Q 468.817 69.552 467.251 69.842 Q 466.555 70.016 465.83 70.103 Q 465.105 70.19 464.351 70.19 Q 462.437 70.19 460.61 69.639 Q 458.783 69.088 457.159 67.754 Q 455.709 66.652 454.723 64.883 Q 453.737 63.114 453.273 61.084 Q 452.983 60.04 452.867 58.88 Q 452.751 57.72 452.751 56.502 Q 452.751 53.486 453.563 50.963 Q 454.375 48.44 456.115 46.41 Q 457.855 44.38 460.436 42.959 Q 463.017 41.538 466.555 40.494 Q 468.353 39.972 470.383 39.595 Q 472.413 39.218 474.675 38.928 Z M 474.675 57.43 L 474.675 46.7 Q 472.935 47.28 471.543 47.86 Q 470.151 48.44 469.107 49.252 Q 468.179 49.948 467.454 50.76 Q 466.729 51.572 466.439 52.558 Q 466.091 53.602 466.091 54.53 Q 466.091 55.4 466.294 56.125 Q 466.497 56.85 466.787 57.198 Q 467.541 58.358 468.817 58.648 Q 469.513 58.88 470.151 58.88 Q 472.123 58.88 474.675 57.43 Z M 609.119 38.928 L 609.119 35.1 Q 609.119 34.52 608.916 33.795 Q 608.713 33.07 608.423 32.664 Q 608.075 32.2 607.669 31.823 Q 607.263 31.446 606.567 31.214 Q 605.871 31.04 605.291 31.04 Q 604.769 31.04 604.044 31.214 Q 603.319 31.388 602.913 31.736 Q 601.985 32.432 601.637 33.65 Q 601.405 34.346 601.405 34.926 L 601.405 36.26 L 588.645 36.26 L 588.645 32.838 Q 588.645 30.286 589.37 27.966 Q 590.095 25.646 591.487 23.906 Q 594.329 20.484 599.665 19.15 Q 600.941 18.86 602.42 18.715 Q 603.899 18.57 605.465 18.57 Q 613.411 18.57 617.819 22.34 Q 622.169 26.11 622.169 32.838 L 622.169 69.61 L 609.119 69.61 Q 609.119 69.088 609.235 68.363 Q 609.351 67.638 609.525 67.116 Q 609.757 66.478 610.018 65.869 Q 610.279 65.26 610.627 64.564 Q 610.917 64.042 611.439 63.404 L 610.743 62.824 Q 609.815 64.448 608.858 65.521 Q 607.901 66.594 606.799 67.464 Q 605.755 68.334 604.508 68.943 Q 603.261 69.552 601.695 69.842 Q 600.999 70.016 600.274 70.103 Q 599.549 70.19 598.795 70.19 Q 596.881 70.19 595.054 69.639 Q 593.227 69.088 591.603 67.754 Q 590.153 66.652 589.167 64.883 Q 588.181 63.114 587.717 61.084 Q 587.427 60.04 587.311 58.88 Q 587.195 57.72 587.195 56.502 Q 587.195 53.486 588.007 50.963 Q 588.819 48.44 590.559 46.41 Q 592.299 44.38 594.88 42.959 Q 597.461 41.538 600.999 40.494 Q 602.797 39.972 604.827 39.595 Q 606.857 39.218 609.119 38.928 Z M 609.119 57.43 L 609.119 46.7 Q 607.379 47.28 605.987 47.86 Q 604.595 48.44 603.551 49.252 Q 602.623 49.948 601.898 50.76 Q 601.173 51.572 600.883 52.558 Q 600.535 53.602 600.535 54.53 Q 600.535 55.4 600.738 56.125 Q 600.941 56.85 601.231 57.198 Q 601.985 58.358 603.261 58.648 Q 603.957 58.88 604.595 58.88 Q 606.567 58.88 609.119 57.43 Z M 426.361 6.97 L 439.411 6.97 L 439.411 10.334 Q 439.411 16.772 434.249 19.382 L 434.249 20.31 Q 436.801 19.15 439.759 19.15 L 448.981 19.15 L 448.981 31.33 L 439.411 31.33 L 439.411 55.4 Q 439.411 57.14 441.151 57.14 L 448.981 57.14 L 449.561 69.61 L 437.961 69.61 Q 435.641 69.61 433.785 69.146 Q 431.929 68.682 430.537 67.754 Q 429.145 66.942 428.217 65.492 Q 427.289 64.042 426.825 62.302 Q 426.361 60.446 426.361 58.126 L 426.361 31.33 L 421.721 31.33 L 421.721 19.15 L 426.361 19.15 L 426.361 6.97 Z M 358.211 70.19 Q 353.803 70.19 349.975 68.827 Q 346.147 67.464 343.131 65.144 Q 339.999 62.824 337.65 59.692 Q 335.301 56.56 333.967 52.384 Q 332.691 48.556 332.691 44.206 Q 332.691 40.03 333.967 36.144 Q 335.243 32.258 337.563 29.068 Q 339.999 25.762 343.218 23.442 Q 346.437 21.122 350.091 19.904 Q 352.005 19.266 354.035 18.918 Q 356.065 18.57 358.211 18.57 Q 362.329 18.57 366.244 19.904 Q 370.159 21.238 373.291 23.5 Q 376.365 25.82 378.772 29.039 Q 381.179 32.258 382.455 36.144 Q 383.035 38.058 383.383 40.088 Q 383.731 42.118 383.731 44.206 Q 383.731 47.686 382.658 51.688 Q 381.585 55.69 378.801 59.576 Q 376.481 62.824 373.233 65.202 Q 369.985 67.58 366.273 68.856 Q 364.359 69.494 362.329 69.842 Q 360.299 70.19 358.211 70.19 Z M 358.269 57.72 Q 360.183 57.72 362.126 57.082 Q 364.069 56.444 365.577 55.168 Q 367.491 53.66 368.564 51.891 Q 369.637 50.122 370.043 48.614 Q 370.333 47.628 370.507 46.555 Q 370.681 45.482 370.681 44.38 Q 370.681 42.118 370.043 40.117 Q 369.405 38.116 368.303 36.434 Q 367.317 35.042 365.809 33.737 Q 364.301 32.432 362.155 31.678 Q 360.241 31.04 358.269 31.04 Q 354.093 31.04 350.903 33.534 Q 349.395 34.694 348.177 36.405 Q 346.959 38.116 346.379 40.088 Q 346.089 41.074 345.915 42.176 Q 345.741 43.278 345.741 44.38 Q 345.741 46.178 346.263 48.208 Q 346.785 50.238 348.177 52.268 Q 349.279 53.892 350.787 55.11 Q 352.295 56.328 354.325 57.024 Q 356.239 57.72 358.269 57.72 Z M 233.511 70.19 Q 232.235 70.19 230.93 69.784 Q 229.625 69.378 228.697 68.624 Q 227.653 67.87 226.928 66.884 Q 226.203 65.898 225.797 64.622 Q 225.333 63.346 225.333 62.07 Q 225.333 60.62 225.797 59.431 Q 226.261 58.242 226.957 57.256 Q 227.711 56.154 228.697 55.487 Q 229.683 54.82 230.959 54.356 Q 232.235 53.95 233.511 53.95 Q 234.787 53.95 236.121 54.385 Q 237.455 54.82 238.325 55.458 Q 239.253 56.212 239.949 57.14 Q 240.645 58.068 241.167 59.46 Q 241.573 60.794 241.573 62.07 A 7.055 7.055 0 0 1 241.556 62.551 A 9.827 9.827 0 0 1 241.167 64.622 Q 240.761 66.014 240.065 66.884 Q 239.311 67.87 238.296 68.653 Q 237.281 69.436 236.063 69.784 Q 235.483 69.958 234.845 70.074 A 6.985 6.985 0 0 1 234.358 70.145 A 7.754 7.754 0 0 1 233.511 70.19 Z M 500.253 70.19 Q 498.977 70.19 497.672 69.784 Q 496.367 69.378 495.439 68.624 Q 494.395 67.87 493.67 66.884 Q 492.945 65.898 492.539 64.622 Q 492.075 63.346 492.075 62.07 Q 492.075 60.62 492.539 59.431 Q 493.003 58.242 493.699 57.256 Q 494.453 56.154 495.439 55.487 Q 496.425 54.82 497.701 54.356 Q 498.977 53.95 500.253 53.95 Q 501.529 53.95 502.863 54.385 Q 504.197 54.82 505.067 55.458 Q 505.995 56.212 506.691 57.14 Q 507.387 58.068 507.909 59.46 Q 508.315 60.794 508.315 62.07 A 7.055 7.055 0 0 1 508.298 62.551 A 9.827 9.827 0 0 1 507.909 64.622 Q 507.503 66.014 506.807 66.884 Q 506.053 67.87 505.038 68.653 Q 504.023 69.436 502.805 69.784 Q 502.225 69.958 501.587 70.074 A 6.985 6.985 0 0 1 501.1 70.145 A 7.754 7.754 0 0 1 500.253 70.19 Z"/></g></svg>